<svg width="41" height="46" viewBox="0 0 41 46" fill="none" xmlns="http://www.w3.org/2000/svg">
<path d="M34.2631 21H6.73657C4.56478 21 2.8042 22.7909 2.8042 25V39C2.8042 41.2091 4.56478 43 6.73657 43H34.2631C36.4349 43 38.1955 41.2091 38.1955 39V25C38.1955 22.7909 36.4349 21 34.2631 21Z" stroke="#2D6C43" stroke-width="5" stroke-linecap="round" stroke-linejoin="round"/>
<path d="M10.0435 21V13C10.0435 10.3478 11.1028 7.8043 12.9883 5.92893C14.8739 4.05357 17.4312 3 20.0978 3C22.7644 3 25.3217 4.05357 27.2073 5.92893C29.0929 7.8043 30.1522 10.3478 30.1522 13V21" stroke="#2D6C43" stroke-width="5" stroke-linecap="round" stroke-linejoin="round"/>
</svg>
