<svg width="37" height="47" viewBox="0 0 37 47" fill="none" xmlns="http://www.w3.org/2000/svg">
<path d="M3 44V36.8889C3 34.5314 4.63303 32.2705 7.53984 30.6035C10.4467 28.9365 14.3891 28 18.5 28C22.6109 28 26.5533 28.9365 29.4602 30.6035C32.367 32.2705 34 34.5314 34 36.8889V44" stroke="#2D6C43" stroke-width="5" stroke-linecap="round" stroke-linejoin="round"/>
<path d="M6 15C6 11.8174 7.31696 8.76516 9.66117 6.51472C12.0054 4.26428 15.1848 3 18.5 3C21.8152 3 24.9946 4.26428 27.3388 6.51472C29.683 8.76516 31 11.8174 31 15" stroke="#2D6C43" stroke-width="5" stroke-linecap="round" stroke-linejoin="round"/>
<path d="M6 15C6 18.1826 7.31696 21.2348 9.66117 23.4853C12.0054 25.7357 15.1848 27 18.5 27C21.8152 27 24.9946 25.7357 27.3388 23.4853C29.683 21.2348 31 18.1826 31 15" stroke="#2D6C43" stroke-width="5" stroke-linecap="round" stroke-linejoin="round"/>
</svg>
